<svg xmlns="http://www.w3.org/2000/svg" width="103.056" height="15.411" viewBox="0 0 103.056 15.411">
  <path id="パス_11" data-name="パス 11" d="M2-14.733H7.111a8.553,8.553,0,0,1,2.322.283,4.912,4.912,0,0,1,1.667.794,3.354,3.354,0,0,1,1.006,1.217,3.508,3.508,0,0,1,.339,1.539,3.2,3.2,0,0,1-.261,1.289,3.592,3.592,0,0,1-.733,1.083,4.5,4.5,0,0,1-1.139.833,6.571,6.571,0,0,1-1.467.55L14.211,0H11.333L6.211-6.922H4.478V0H2ZM4.478-7.667H5.911A5.1,5.1,0,0,0,7.45-7.889a3.813,3.813,0,0,0,1.222-.628A2.867,2.867,0,0,0,9.478-9.5a2.867,2.867,0,0,0,.289-1.3,3.192,3.192,0,0,0-.228-1.222,2.7,2.7,0,0,0-.644-.95,3,3,0,0,0-.989-.617,3.424,3.424,0,0,0-1.25-.222H4.478ZM21.033.244a5.482,5.482,0,0,1-2.172-.433,5.659,5.659,0,0,1-1.772-1.178,5.542,5.542,0,0,1-1.194-1.75,5.288,5.288,0,0,1-.439-2.139,7.713,7.713,0,0,1,.4-2.528,6,6,0,0,1,1.133-2.006,5.218,5.218,0,0,1,1.761-1.322,5.378,5.378,0,0,1,2.294-.478,5.2,5.2,0,0,1,2.044.394,5.084,5.084,0,0,1,1.606,1.056,4.754,4.754,0,0,1,1.044,1.528A4.543,4.543,0,0,1,26.111-6.8H17.633a7.33,7.33,0,0,0,.294,2.122,5.364,5.364,0,0,0,.828,1.689,3.926,3.926,0,0,0,1.267,1.111,3.309,3.309,0,0,0,1.611.4,4.214,4.214,0,0,0,1.411-.239,4.982,4.982,0,0,0,1.228-.628,4.389,4.389,0,0,0,.939-.889,3.1,3.1,0,0,0,.544-1.033l.656.289a5.261,5.261,0,0,1-.789,1.644A6.425,6.425,0,0,1,24.35-.994a6.177,6.177,0,0,1-1.583.906A4.74,4.74,0,0,1,21.033.244Zm2.244-7.956a3.132,3.132,0,0,0-.228-1.2,2.94,2.94,0,0,0-.628-.961,2.969,2.969,0,0,0-.933-.639,2.824,2.824,0,0,0-1.144-.233,2.2,2.2,0,0,0-.978.228,2.736,2.736,0,0,0-.833.633,3.452,3.452,0,0,0-.606.961,3.651,3.651,0,0,0-.283,1.2Zm6.778-2.456a1.181,1.181,0,0,1,.467.094,1.322,1.322,0,0,1,.389.25,1.109,1.109,0,0,1,.261.372,1.141,1.141,0,0,1,.094.461,1.1,1.1,0,0,1-.094.456,1.188,1.188,0,0,1-.261.372,1.266,1.266,0,0,1-.389.256,1.181,1.181,0,0,1-.467.094,1.209,1.209,0,0,1-.478-.094,1.266,1.266,0,0,1-.389-.256,1.188,1.188,0,0,1-.261-.372,1.1,1.1,0,0,1-.094-.456,1.141,1.141,0,0,1,.094-.461,1.109,1.109,0,0,1,.261-.372,1.322,1.322,0,0,1,.389-.25A1.209,1.209,0,0,1,30.056-10.167Zm0,8.167a1.181,1.181,0,0,1,.467.094,1.322,1.322,0,0,1,.389.25,1.109,1.109,0,0,1,.261.372,1.115,1.115,0,0,1,.094.45,1.13,1.13,0,0,1-.094.467,1.188,1.188,0,0,1-.261.372,1.188,1.188,0,0,1-.389.25,1.245,1.245,0,0,1-.467.089,1.274,1.274,0,0,1-.478-.089,1.188,1.188,0,0,1-.389-.25,1.188,1.188,0,0,1-.261-.372,1.13,1.13,0,0,1-.094-.467,1.115,1.115,0,0,1,.094-.45,1.109,1.109,0,0,1,.261-.372,1.322,1.322,0,0,1,.389-.25A1.209,1.209,0,0,1,30.056-2ZM39.289-.589a3.963,3.963,0,0,0,1.078-.15,3.144,3.144,0,0,0,.956-.444A2.332,2.332,0,0,0,42-1.906a1.9,1.9,0,0,0,.256-.994,2.131,2.131,0,0,0-.35-1.206,4.087,4.087,0,0,0-.917-.967A9.161,9.161,0,0,0,39.694-5.9q-.728-.389-1.483-.778t-1.483-.817a7.367,7.367,0,0,1-1.294-.956,4.556,4.556,0,0,1-.917-1.178,3.1,3.1,0,0,1-.35-1.494,3.858,3.858,0,0,1,.317-1.567,3.483,3.483,0,0,1,.928-1.25,4.426,4.426,0,0,1,1.506-.828,6.438,6.438,0,0,1,2.05-.3,7.167,7.167,0,0,1,1.867.222,4.607,4.607,0,0,1,1.444.656,4.13,4.13,0,0,1,1.056,1.067,5.606,5.606,0,0,1,.7,1.467l-1.267.578a5.829,5.829,0,0,0-.567-1.239,3.907,3.907,0,0,0-.822-.961,3.464,3.464,0,0,0-1.106-.617,4.327,4.327,0,0,0-1.417-.217,3.5,3.5,0,0,0-1.222.194,2.674,2.674,0,0,0-.872.511,2.078,2.078,0,0,0-.522.711,2,2,0,0,0-.172.806,1.751,1.751,0,0,0,.356,1.061,4.278,4.278,0,0,0,.944.911,11.43,11.43,0,0,0,1.339.828q.75.4,1.528.811t1.528.856A8.46,8.46,0,0,1,43.1-6.45a4.593,4.593,0,0,1,.944,1.156A2.8,2.8,0,0,1,44.4-3.889a4.118,4.118,0,0,1-.333,1.65,3.677,3.677,0,0,1-1,1.344,4.924,4.924,0,0,1-1.656.906,7.2,7.2,0,0,1-2.3.333,7.059,7.059,0,0,1-1.9-.233,4.84,4.84,0,0,1-1.472-.678A4.471,4.471,0,0,1,34.644-1.65,5.827,5.827,0,0,1,33.9-3.111l1.322-.544a4.849,4.849,0,0,0,.628,1.289,4.2,4.2,0,0,0,.917.961A3.987,3.987,0,0,0,37.928-.8,4.311,4.311,0,0,0,39.289-.589ZM50.178-7.311a7.757,7.757,0,0,0,.467,2.772,6.066,6.066,0,0,0,1.283,2.078,5.509,5.509,0,0,0,1.928,1.3,6.363,6.363,0,0,0,2.411.45,3.873,3.873,0,0,0,1.5-.3,5.714,5.714,0,0,0,1.339-.783,6.834,6.834,0,0,0,1.106-1.089,6.808,6.808,0,0,0,.8-1.228l1.044.667a9.441,9.441,0,0,1-1.078,1.428A7.271,7.271,0,0,1,59.539-.806a7.243,7.243,0,0,1-1.844.839A7.9,7.9,0,0,1,55.4.344a8.716,8.716,0,0,1-3.328-.611,7.872,7.872,0,0,1-2.561-1.656,7.343,7.343,0,0,1-1.65-2.439,7.567,7.567,0,0,1-.583-2.95,7.671,7.671,0,0,1,.267-2.017,7.505,7.505,0,0,1,.772-1.844A7.627,7.627,0,0,1,49.55-12.75a7.763,7.763,0,0,1,1.644-1.233,8.342,8.342,0,0,1,2.006-.8,9.193,9.193,0,0,1,2.322-.283,7.126,7.126,0,0,1,2.172.317,7.655,7.655,0,0,1,1.811.839,7.55,7.55,0,0,1,1.456,1.206,8.878,8.878,0,0,1,1.094,1.428l-1.078.711a7.255,7.255,0,0,0-2.067-2.617,4.377,4.377,0,0,0-2.633-.828,6.106,6.106,0,0,0-2.389.467,5.71,5.71,0,0,0-1.939,1.333,6.205,6.205,0,0,0-1.3,2.106A7.8,7.8,0,0,0,50.178-7.311Zm21.089-7.756L78.2,0H75.678L73.433-4.911H67.111L64.789,0H63.544l7.1-15.067Zm-3.722,9.2h5.433L70.3-11.7Zm12.7-8.867h2.478V-.956h7.422V0h-9.9Zm17.878-.333L105.056,0h-2.522l-2.244-4.911H93.967L91.644,0H90.4l7.1-15.067ZM94.4-5.867h5.433L97.156-11.7Z" transform="translate(-2 15.067)" fill="#f40"/>
</svg>
