<svg xmlns="http://www.w3.org/2000/svg" width="111.636" height="23.985" viewBox="0 0 111.636 23.985">
  <path id="パス_6" data-name="パス 6" d="M2-13.832H9a11.707,11.707,0,0,1,3.179.388,6.724,6.724,0,0,1,2.281,1.087,4.592,4.592,0,0,1,1.376,1.665A4.8,4.8,0,0,1,16.3-8.585a4.373,4.373,0,0,1-.357,1.764,4.917,4.917,0,0,1-1,1.483A6.161,6.161,0,0,1,13.377-4.2a8.995,8.995,0,0,1-2.008.753l7.346,9.78H14.776L7.764-3.14H5.392V6.336H2ZM5.392-4.159H7.354a6.981,6.981,0,0,0,2.106-.3,5.219,5.219,0,0,0,1.673-.859,3.925,3.925,0,0,0,1.1-1.346,3.924,3.924,0,0,0,.4-1.779,4.369,4.369,0,0,0-.312-1.673,3.7,3.7,0,0,0-.882-1.3,4.107,4.107,0,0,0-1.354-.844,4.687,4.687,0,0,0-1.711-.3H5.392ZM28.053,6.67a7.5,7.5,0,0,1-2.973-.593,7.746,7.746,0,0,1-2.426-1.612,7.586,7.586,0,0,1-1.635-2.4,7.239,7.239,0,0,1-.6-2.928,10.558,10.558,0,0,1,.548-3.46,8.215,8.215,0,0,1,1.551-2.745,7.142,7.142,0,0,1,2.411-1.81,7.362,7.362,0,0,1,3.141-.654,7.116,7.116,0,0,1,2.8.54,6.959,6.959,0,0,1,2.2,1.445,6.508,6.508,0,0,1,1.43,2.091A6.218,6.218,0,0,1,35-2.972H23.4a10.034,10.034,0,0,0,.4,2.9,7.343,7.343,0,0,0,1.133,2.312,5.373,5.373,0,0,0,1.734,1.521,4.53,4.53,0,0,0,2.205.548,5.768,5.768,0,0,0,1.932-.327,6.819,6.819,0,0,0,1.681-.859A6.007,6.007,0,0,0,33.772,1.91,4.239,4.239,0,0,0,34.517.5l.9.4a7.2,7.2,0,0,1-1.08,2.251,8.8,8.8,0,0,1-1.741,1.833,8.455,8.455,0,0,1-2.167,1.24A6.488,6.488,0,0,1,28.053,6.67Zm3.072-10.89a4.288,4.288,0,0,0-.312-1.643,4.025,4.025,0,0,0-.859-1.316,4.064,4.064,0,0,0-1.278-.875,3.865,3.865,0,0,0-1.567-.319,3.014,3.014,0,0,0-1.338.312,3.745,3.745,0,0,0-1.141.867A4.725,4.725,0,0,0,23.8-5.877a5,5,0,0,0-.388,1.643ZM46.411,5.53a5.425,5.425,0,0,0,1.475-.205,4.3,4.3,0,0,0,1.308-.608,3.192,3.192,0,0,0,.928-.989,2.6,2.6,0,0,0,.35-1.361,2.917,2.917,0,0,0-.479-1.65A5.594,5.594,0,0,0,48.738-.607,12.54,12.54,0,0,0,46.966-1.74q-1-.532-2.03-1.065t-2.03-1.118a10.084,10.084,0,0,1-1.772-1.308,6.237,6.237,0,0,1-1.255-1.612A4.248,4.248,0,0,1,39.4-8.889a5.281,5.281,0,0,1,.433-2.145,4.768,4.768,0,0,1,1.27-1.711,6.059,6.059,0,0,1,2.061-1.133,8.813,8.813,0,0,1,2.806-.411,9.811,9.811,0,0,1,2.555.3,6.306,6.306,0,0,1,1.977.9,5.653,5.653,0,0,1,1.445,1.46,7.673,7.673,0,0,1,.958,2.008l-1.734.791a7.979,7.979,0,0,0-.776-1.7,5.348,5.348,0,0,0-1.125-1.316,4.742,4.742,0,0,0-1.513-.844,5.923,5.923,0,0,0-1.939-.3,4.787,4.787,0,0,0-1.673.266,3.66,3.66,0,0,0-1.194.7,2.845,2.845,0,0,0-.715.973A2.731,2.731,0,0,0,42-9.938a2.4,2.4,0,0,0,.487,1.452A5.856,5.856,0,0,0,43.78-7.239a15.646,15.646,0,0,0,1.833,1.133Q46.639-5.558,47.7-5T49.8-3.824a11.581,11.581,0,0,1,1.833,1.331A6.287,6.287,0,0,1,52.921-.911a3.835,3.835,0,0,1,.487,1.924,5.637,5.637,0,0,1-.456,2.259,5.033,5.033,0,0,1-1.369,1.84,6.741,6.741,0,0,1-2.266,1.24,9.86,9.86,0,0,1-3.148.456,9.663,9.663,0,0,1-2.6-.319,6.625,6.625,0,0,1-2.015-.928,6.121,6.121,0,0,1-1.5-1.483,7.976,7.976,0,0,1-1.019-2l1.81-.745A6.638,6.638,0,0,0,41.7,3.1a5.748,5.748,0,0,0,1.255,1.316,5.458,5.458,0,0,0,1.589.829A5.9,5.9,0,0,0,46.411,5.53ZM68.343-4.858a7.94,7.94,0,0,0-.456-1.232,4.686,4.686,0,0,0-.738-1.133,3.667,3.667,0,0,0-1.057-.829,3.034,3.034,0,0,0-1.43-.319,4.1,4.1,0,0,0-1.886.426A4.23,4.23,0,0,0,61.362-6.79a5.224,5.224,0,0,0-.882,1.7,6.9,6.9,0,0,0-.3,2.068A10.036,10.036,0,0,0,60.563-.2a7.814,7.814,0,0,0,1.1,2.335,5.457,5.457,0,0,0,1.7,1.589,4.315,4.315,0,0,0,2.228.586,4.742,4.742,0,0,0,1.878-.342,4.434,4.434,0,0,0,1.384-.92A5.889,5.889,0,0,0,69.864,1.7a13.561,13.561,0,0,0,.76-1.62l.928.38a10.866,10.866,0,0,1-1.065,2.616,7.767,7.767,0,0,1-1.574,1.954,6.408,6.408,0,0,1-2.038,1.217,7.039,7.039,0,0,1-2.456.418,6.938,6.938,0,0,1-2.875-.6,7.23,7.23,0,0,1-2.327-1.65,7.971,7.971,0,0,1-1.567-2.449,7.77,7.77,0,0,1-.578-3,8.757,8.757,0,0,1,.289-2.259,8.81,8.81,0,0,1,.814-2.03,8.435,8.435,0,0,1,1.262-1.719,8.208,8.208,0,0,1,1.635-1.331A7.912,7.912,0,0,1,63-9.223a7.482,7.482,0,0,1,2.137-.3,7.311,7.311,0,0,1,1.779.213,6.653,6.653,0,0,1,1.567.6,5.125,5.125,0,0,1,1.262.958,4.3,4.3,0,0,1,.852,1.27ZM85.621,6.336a2.889,2.889,0,0,1-1.027-.859,2.055,2.055,0,0,1-.418-1.27q-.548.411-1.072.852a8.035,8.035,0,0,1-1.141.8,6.435,6.435,0,0,1-1.369.586,6.017,6.017,0,0,1-1.741.228,4.389,4.389,0,0,1-1.65-.3,3.525,3.525,0,0,1-2.038-2.046,4.156,4.156,0,0,1-.281-1.536,4.055,4.055,0,0,1,.4-1.81A4.791,4.791,0,0,1,76.366-.455a8.071,8.071,0,0,1,1.6-1.125,15.532,15.532,0,0,1,1.947-.882q1.034-.388,2.129-.692t2.129-.563v-.973a8.973,8.973,0,0,0-.152-1.795,3.115,3.115,0,0,0-.471-1.179,1.757,1.757,0,0,0-.814-.639,3.283,3.283,0,0,0-1.179-.19,2.778,2.778,0,0,0-1.2.259,3.273,3.273,0,0,0-.966.692,3.6,3.6,0,0,0-.684,1.019,4.472,4.472,0,0,0-.357,1.24H75.522a3.8,3.8,0,0,1,.692-1.795A5.022,5.022,0,0,1,77.651-8.41a7.109,7.109,0,0,1,1.97-.829,8.992,8.992,0,0,1,2.289-.289,9.406,9.406,0,0,1,2.555.3,4.382,4.382,0,0,1,1.658.829,2.953,2.953,0,0,1,.89,1.3,5.151,5.151,0,0,1,.266,1.7V4.206a2.055,2.055,0,0,0,.418,1.27,2.889,2.889,0,0,0,1.027.859ZM84.176-2.729q-.669.213-1.384.487t-1.4.616a14.8,14.8,0,0,0-1.308.738,6.817,6.817,0,0,0-1.1.852,4.02,4.02,0,0,0-.745.958,2.162,2.162,0,0,0-.274,1.049,2.792,2.792,0,0,0,.213,1.087,3.128,3.128,0,0,0,.563.9,2.6,2.6,0,0,0,.806.608,2.143,2.143,0,0,0,.943.221,3.528,3.528,0,0,0,.989-.137,4.728,4.728,0,0,0,.913-.373,9.166,9.166,0,0,0,.882-.54q.441-.3.9-.654ZM95.385,6.336h-3.1V-16.3l2.205-.882h.9Zm15.148,0a2.889,2.889,0,0,1-1.027-.859,2.055,2.055,0,0,1-.418-1.27q-.548.411-1.072.852a8.036,8.036,0,0,1-1.141.8,6.435,6.435,0,0,1-1.369.586,6.018,6.018,0,0,1-1.741.228,4.389,4.389,0,0,1-1.65-.3,3.525,3.525,0,0,1-2.038-2.046A4.156,4.156,0,0,1,99.8,2.792a4.055,4.055,0,0,1,.4-1.81,4.791,4.791,0,0,1,1.087-1.437,8.071,8.071,0,0,1,1.6-1.125,15.533,15.533,0,0,1,1.947-.882q1.034-.388,2.129-.692t2.129-.563v-.973a8.972,8.972,0,0,0-.152-1.795,3.115,3.115,0,0,0-.471-1.179,1.757,1.757,0,0,0-.814-.639,3.283,3.283,0,0,0-1.179-.19,2.778,2.778,0,0,0-1.2.259,3.273,3.273,0,0,0-.966.692,3.6,3.6,0,0,0-.684,1.019,4.473,4.473,0,0,0-.357,1.24h-2.829a3.8,3.8,0,0,1,.692-1.795,5.022,5.022,0,0,1,1.437-1.331,7.109,7.109,0,0,1,1.97-.829,8.992,8.992,0,0,1,2.289-.289,9.406,9.406,0,0,1,2.555.3,4.382,4.382,0,0,1,1.658.829,2.953,2.953,0,0,1,.89,1.3,5.151,5.151,0,0,1,.266,1.7V4.206a2.055,2.055,0,0,0,.418,1.27,2.889,2.889,0,0,0,1.027.859Zm-1.445-9.065q-.669.213-1.384.487t-1.4.616A14.8,14.8,0,0,0,105-.889a6.818,6.818,0,0,0-1.1.852,4.02,4.02,0,0,0-.745.958,2.162,2.162,0,0,0-.274,1.049,2.791,2.791,0,0,0,.213,1.087,3.128,3.128,0,0,0,.563.9,2.6,2.6,0,0,0,.806.608,2.143,2.143,0,0,0,.943.221,3.528,3.528,0,0,0,.989-.137,4.728,4.728,0,0,0,.913-.373,9.169,9.169,0,0,0,.882-.54q.441-.3.9-.654Z" transform="translate(-2 17.178)" fill="#f40"/>
</svg>
